<svg width="30" height="26" viewBox="0 0 30 26" fill="none" xmlns="http://www.w3.org/2000/svg">
<ellipse cx="14.9607" cy="13" rx="14.9607" ry="13" fill="#FFF3F3"/>
<path d="M21.4619 8.3609H19.5927C19.5677 8.35337 19.5417 8.34848 19.5153 8.34623H17.5251V6.9119C17.5252 6.80411 17.4766 6.70062 17.3899 6.62364C17.3031 6.54666 17.1851 6.50225 17.0612 6.5H12.3543C12.2285 6.5 12.108 6.54333 12.0192 6.6206C11.9302 6.69788 11.8802 6.80263 11.8802 6.9119V8.34623H9.9001C9.87376 8.34848 9.84775 8.35337 9.82276 8.3609H7.9535C7.78409 8.3609 7.62761 8.43935 7.54298 8.5668C7.45833 8.69425 7.45833 8.85123 7.54298 8.97869C7.62763 9.10614 7.7841 9.18468 7.9535 9.18468H9.47642L10.707 19.1319C10.7201 19.2332 10.7758 19.3266 10.8632 19.3946C10.9506 19.4624 11.0637 19.4999 11.181 19.5H18.2411C18.3572 19.4985 18.4686 19.4603 18.5547 19.3926C18.6407 19.3248 18.6953 19.2322 18.7084 19.1319L19.9388 9.1992H21.4618C21.6313 9.1992 21.7877 9.12076 21.8724 8.9933C21.957 8.86585 21.957 8.70877 21.8724 8.58142C21.7877 8.45397 21.6313 8.37542 21.4618 8.37542L21.4619 8.3609ZM12.8385 7.32379H16.5769V8.34623H12.8385V7.32379ZM17.8108 18.6703H11.6046L10.4279 9.1993H18.9874L17.8108 18.6703Z" fill="#E41D1D"/>
<path d="M14.7089 17.7064C14.8346 17.7064 14.9552 17.663 15.0441 17.5858C15.133 17.5085 15.1829 17.4038 15.1829 17.2945V10.5755C15.1829 10.4282 15.0926 10.2923 14.9459 10.2187C14.7993 10.1451 14.6185 10.1451 14.4718 10.2187C14.3251 10.2923 14.2349 10.4282 14.2349 10.5755V17.2945C14.2349 17.4038 14.2847 17.5085 14.3737 17.5858C14.4626 17.663 14.5831 17.7064 14.7089 17.7064H14.7089Z" fill="#E41D1D"/>
<path d="M12.8426 17.7034H12.8628C12.988 17.6989 13.1059 17.6514 13.191 17.5715C13.276 17.4916 13.3213 17.3857 13.3167 17.2769L13.0309 10.5578L13.031 10.5577C13.0284 10.4477 12.9742 10.3432 12.8809 10.2687C12.7875 10.1943 12.6632 10.1562 12.5367 10.1633C12.4115 10.1679 12.2936 10.2154 12.2086 10.2953C12.1235 10.3752 12.0783 10.4811 12.0828 10.5899L12.3686 17.309C12.3746 17.4149 12.4271 17.5149 12.5153 17.5882C12.6034 17.6615 12.7206 17.7028 12.8426 17.7034L12.8426 17.7034Z" fill="#E41D1D"/>
<path d="M16.557 17.7034H16.5737C16.6987 17.7058 16.8197 17.6655 16.9109 17.5913C17.0019 17.5169 17.056 17.4145 17.0613 17.3061L17.3471 10.587H17.347C17.3516 10.4782 17.3063 10.3723 17.2213 10.2924C17.1362 10.2125 17.0183 10.165 16.8931 10.1604C16.7651 10.149 16.6374 10.1849 16.5414 10.2594C16.4454 10.3338 16.39 10.4401 16.3888 10.552L16.0996 17.271H16.0997C16.0933 17.3813 16.1381 17.4892 16.2241 17.5704C16.31 17.6517 16.43 17.6997 16.557 17.7034L16.557 17.7034Z" fill="#E41D1D"/>
</svg>
