<svg width="99" height="86" viewBox="0 0 99 86" fill="none" xmlns="http://www.w3.org/2000/svg">
<path d="M51.7118 20.9476L51.8034 20.9747L51.8063 20.9714C52.4132 21.0998 53.0249 20.7441 53.2037 20.1445C54.8927 14.5092 60.2138 10.5719 66.1437 10.5719C66.8053 10.5719 67.3436 10.0388 67.3436 9.37939C67.3436 8.71993 66.8052 8.18688 66.1437 8.18688C58.9226 8.18688 52.8532 12.961 50.9043 19.4643C50.7144 20.0966 51.0774 20.7597 51.7118 20.9476Z" fill="black" stroke="#F9FFF9" stroke-width="0.3"/>
<path d="M80.841 60.4621H74.5419C73.9622 60.4621 73.492 59.9952 73.492 59.4196C73.492 58.844 73.9622 58.3771 74.5419 58.3771H80.841C89.5242 58.3771 96.5891 51.3618 96.5891 42.7396C96.5891 34.1175 89.5242 27.1022 80.841 27.1022H80.6896C80.3851 27.1022 80.0956 26.9711 79.8961 26.7425C79.6967 26.5139 79.6067 26.2108 79.6502 25.9115C79.7439 25.2622 79.7912 24.6099 79.7912 23.9747C79.7912 16.5022 73.6681 10.4221 66.1427 10.4221C63.2151 10.4221 60.4231 11.3306 58.0683 13.05C57.5509 13.4275 56.816 13.26 56.5168 12.6948C49.8479 0.0850537 32.4294 -1.6083 23.3988 9.36104C19.5945 13.9823 18.0998 19.9937 19.2975 25.8527C19.4295 26.4998 18.9308 27.103 18.2687 27.103H17.848C9.16481 27.103 2.09985 34.1183 2.09985 42.7404C2.09985 51.3626 9.16481 58.3779 17.848 58.3779H24.1471C24.7268 58.3779 25.197 58.8448 25.197 59.4204C25.197 59.996 24.7268 60.4629 24.1471 60.4629H17.848C8.00681 60.4629 0 52.5124 0 42.7404C0 33.2425 7.56353 25.4654 17.0238 25.0365C16.1352 18.9579 17.8345 12.8265 21.7729 8.04155C31.4415 -3.70365 49.9706 -2.38717 57.8033 10.7096C60.302 9.15402 63.1613 8.33798 66.1424 8.33798C75.2598 8.33798 82.4845 16.0436 81.8523 25.0462C91.2254 25.5682 98.6885 33.3042 98.6885 42.7396C98.6885 52.5124 90.6817 60.4622 80.8406 60.4622L80.841 60.4621Z" fill="black"/>
<path d="M22.8065 58.8309C22.8065 73.2858 34.6493 85.0436 49.2037 85.0436C63.7584 85.0436 75.6009 73.2856 75.6009 58.8309C75.6009 44.3759 63.7584 32.6181 49.2037 32.6181C34.6491 32.6181 22.8065 44.3761 22.8065 58.8309ZM25.2068 58.8309C25.2068 45.6939 35.971 35.0036 49.2037 35.0036C62.4363 35.0036 73.2006 45.6937 73.2006 58.8309C73.2006 71.9679 62.4363 82.6582 49.2037 82.6582C35.9711 82.6582 25.2068 71.9681 25.2068 58.8309Z" fill="black" stroke="#F9FFF9" stroke-width="0.3"/>
<path d="M48.765 69.3227C48.765 69.8279 49.1774 70.2359 49.6837 70.2359C50.1898 70.2359 50.6023 69.8285 50.6023 69.3227V49.4786C50.6023 48.9733 50.1899 48.5654 49.6837 48.5654C49.1774 48.5654 48.765 48.9734 48.765 49.4786V69.3227Z" fill="black" stroke="#483EA8" stroke-width="0.3"/>
<path d="M55.1832 56.2324C55.3624 56.4103 55.598 56.4994 55.8323 56.4995L49.034 48.8344L42.8852 54.9401C42.5258 55.297 42.5258 55.8755 42.8852 56.2324C43.2439 56.5886 43.8254 56.5887 44.1837 56.2323L49.6834 50.7713L55.1832 56.2324ZM55.8324 56.4995C56.0664 56.4994 56.3022 56.4111 56.4816 56.2323L55.8324 56.4995Z" fill="black" stroke="#483EA8" stroke-width="0.3"/>
</svg>
